# This file uses centimeters as units for non-parametric coordinates.

mtllib link_finger_nail.3obj.mtl
g default
v -0.005957 -0.001919 0.001456
v -0.005487 -0.002039 0.001533
v -0.006199 -0.001343 0.001016
v -0.007082 -0.001189 0.000875
v -0.006768 -0.001481 0.001133
v -0.006389 -0.001729 0.001324
v 0.006143 -0.001438 0.001098
v -0.007399 -0.000711 0.000354
v -0.007310 -0.000882 0.000557
v 0.005957 -0.001919 0.001456
v 0.006388 -0.001729 0.001325
v 0.006768 -0.001481 0.001133
v 0.007500 -0.000274 -0.000283
v -0.007500 0.000162 -0.001241
v -0.007500 -0.000274 -0.000283
v 0.007399 -0.000711 0.000354
v 0.007286 -0.000881 0.000539
v 0.007080 -0.001191 0.000877
v -0.005000 -0.002080 0.001558
v 0.005000 -0.002080 0.001558
v 0.005487 -0.002039 0.001533
v -0.007500 -0.000786 -0.001557
v -0.007500 -0.000885 -0.001288
v -0.007455 -0.001122 -0.000771
v 0.006768 -0.001931 0.000394
v 0.006391 -0.002152 0.000626
v 0.006135 -0.001925 0.000388
v 0.005957 -0.002325 0.000790
v 0.005488 -0.002433 0.000885
v -0.006129 -0.001925 0.000388
v 0.007269 -0.001457 -0.000209
v 0.007055 -0.001697 0.000117
v -0.005957 -0.002325 0.000790
v -0.006390 -0.002153 0.000627
v -0.006768 -0.001931 0.000394
v 0.005000 -0.002470 0.000917
v -0.005000 -0.002470 0.000917
v -0.005487 -0.002433 0.000885
v 0.007500 -0.000885 -0.001288
v 0.007455 -0.001121 -0.000771
v -0.007039 -0.000786 -0.001557
v -0.007053 -0.001698 0.000119
v -0.007258 -0.001460 -0.000212
v -0.007310 -0.001400 -0.000294
v 0.007300 -0.001402 -0.000302
v 0.007500 -0.000786 -0.001557
v 0.007500 0.000162 -0.001241
vt 0.874932 0.527987
vt 0.881408 0.542217
vt 0.867327 0.546910
vt 0.865857 0.542915
vt 0.862336 0.535235
vt 0.858207 0.528150
vt 0.868441 0.518525
vt 0.857316 0.526932
vt 0.853780 0.522015
vt 0.850319 0.517931
vt 0.847022 0.514470
vt 0.853320 0.504116
vt 0.857004 0.506954
vt 0.861341 0.510786
vt 0.865901 0.515509
vt 0.830278 0.508112
vt 0.831749 0.504116
vt 0.845830 0.508810
vt 0.839354 0.523040
vt 0.826773 0.515792
vt 0.832863 0.532502
vt 0.822599 0.522758
vt 0.830338 0.535250
vt 0.818217 0.528982
vt 0.821782 0.524139
vt 0.825733 0.540271
vt 0.814741 0.533096
vt 0.821426 0.544073
vt 0.811459 0.536542
vt 0.817742 0.546925
vt 0.808889 0.538978
vt 0.746321 0.504116
vt 0.760551 0.726924
vt 0.746321 0.726924
vt 0.760551 0.504116
vt 0.736859 0.505617
vt 0.736859 0.725423
vt 0.734111 0.507295
vt 0.725808 0.524273
vt 0.727026 0.707599
vt 0.729091 0.510355
vt 0.733844 0.724102
vt 0.718975 0.541251
vt 0.725288 0.514989
vt 0.729121 0.720715
vt 0.718975 0.689789
vt 0.719347 0.534017
vt 0.722436 0.520634
vt 0.725288 0.716051
vt 0.719347 0.697023
vt 0.720491 0.527036
vt 0.722451 0.710421
vt 0.720491 0.704004
vt 0.765519 0.504116
vt 0.773199 0.504785
vt 0.761524 0.726924
vt 0.761524 0.720076
vt 0.780165 0.507087
vt 0.761524 0.504116
vt 0.765519 0.726924
vt 0.773199 0.726255
vt 0.780284 0.724102
vt 0.781547 0.507548
vt 0.781502 0.723329
vt 0.790414 0.706559
vt 0.786419 0.720284
vt 0.790414 0.524392
vt 0.790504 0.716051
vt 0.786389 0.510726
vt 0.798272 0.689789
vt 0.793965 0.710436
vt 0.790504 0.514989
vt 0.798272 0.541251
vt 0.797797 0.697023
vt 0.796386 0.704004
vt 0.793950 0.520589
vt 0.797797 0.534002
vt 0.807793 0.689789
vt 0.806278 0.704004
vt 0.804318 0.710421
vt 0.796386 0.527036
vt 0.807422 0.534017
vt 0.807793 0.541251
vt 0.807422 0.697023
vt 0.806278 0.527036
vt 0.804332 0.520634
vt 0.703682 0.504116
vt 0.717764 0.504116
vt 0.717764 0.726924
vt 0.703682 0.726924
vn 0.000000 0.316198 -0.948693
vn 0.000000 0.316198 -0.948693
vn 0.000000 0.316198 -0.948693
vn 0.000000 0.316198 -0.948693
vn 0.000000 0.316198 -0.948693
vn 0.000000 0.316198 -0.948693
vn 0.030000 0.614301 0.788501
vn 0.027800 0.613897 0.788896
vn 0.030201 0.614014 0.788717
vn -0.005200 0.659012 0.752114
vn -0.005200 0.659012 0.752114
vn -0.005200 0.659012 0.752114
vn 0.010800 0.620797 0.783897
vn 0.010800 0.620797 0.783897
vn 0.010800 0.620797 0.783897
vn 0.030201 0.614014 0.788717
vn 0.030701 0.614620 0.788226
vn 0.030000 0.614301 0.788501
vn 0.001000 0.724195 0.689595
vn 0.001000 0.724195 0.689595
vn 0.001000 0.724195 0.689595
vn 0.063296 0.776554 0.626863
vn 0.063296 0.776554 0.626863
vn 0.063296 0.776554 0.626863
vn 0.016599 0.725266 0.688268
vn 0.016599 0.725266 0.688268
vn 0.016599 0.725266 0.688268
vn -0.023000 0.603005 0.797406
vn -0.022799 0.602672 0.797663
vn -0.023000 0.603005 0.797406
vn -0.002800 0.613273 0.789866
vn -0.002800 0.613273 0.789866
vn -0.002800 0.613273 0.789866
vn 0.000000 0.910188 0.414195
vn 0.000000 0.910188 0.414195
vn 0.000000 0.910188 0.414195
vn 0.000000 0.824608 0.565705
vn 0.000000 0.824608 0.565705
vn 0.000000 0.824608 0.565705
vn 0.000000 0.824608 0.565705
vn 0.000000 0.824608 0.565705
vn 0.000000 0.824608 0.565705
vn 0.000000 0.736328 0.676625
vn 0.000000 0.736328 0.676625
vn 0.000000 0.736328 0.676625
vn -0.000700 0.708605 0.705605
vn -0.000700 0.708605 0.705605
vn -0.000700 0.708605 0.705605
vn -0.041498 0.748468 0.661871
vn -0.041498 0.748468 0.661871
vn -0.041498 0.748468 0.661871
vn 0.002600 0.660405 0.750905
vn 0.002600 0.660405 0.750905
vn 0.002600 0.660405 0.750905
vn 0.009300 0.602020 0.798427
vn 0.009300 0.602020 0.798427
vn 0.009300 0.602020 0.798427
vn -0.000600 0.585892 0.810389
vn 0.000000 0.592486 0.805581
vn -0.003500 0.591611 0.806216
vn -0.000600 0.585892 0.810389
vn -0.003500 0.591611 0.806216
vn -0.006700 0.590730 0.806841
vn -0.006700 0.590730 0.806841
vn -0.003500 0.591611 0.806216
vn -0.008100 0.592111 0.805815
vn -0.023000 0.603005 0.797406
vn -0.023599 0.602884 0.797480
vn -0.023000 0.603005 0.797406
vn -1.000000 0.000000 -0.000000
vn -0.999597 -0.024300 0.014700
vn -0.999597 -0.024300 0.014700
vn -0.995515 -0.080801 0.049201
vn -0.995515 -0.080801 0.049201
vn 0.000300 -0.723512 -0.690312
vn 0.000300 -0.723512 -0.690312
vn 0.000300 -0.723512 -0.690312
vn 0.021600 -0.713214 -0.700614
vn 0.019400 -0.712998 -0.700898
vn 0.020000 -0.713089 -0.700789
vn 0.021600 -0.713214 -0.700614
vn 0.020000 -0.713089 -0.700789
vn 0.021600 -0.713412 -0.700412
vn 0.000100 -0.788037 -0.615629
vn 0.000200 -0.789218 -0.614114
vn 0.000000 -0.787199 -0.616699
vn 0.032699 -0.815965 -0.577175
vn 0.032699 -0.815965 -0.577175
vn 0.032699 -0.815965 -0.577175
vn -0.000600 -0.763595 -0.645696
vn -0.000600 -0.763595 -0.645696
vn -0.000600 -0.763595 -0.645696
vn -0.020000 -0.712989 -0.700890
vn -0.019300 -0.712801 -0.701101
vn -0.021399 -0.713167 -0.700668
vn -0.000400 -0.723365 -0.690466
vn -0.000400 -0.723365 -0.690466
vn -0.000400 -0.723365 -0.690466
vn 0.007400 -0.704483 -0.709683
vn 0.005600 -0.702582 -0.711581
vn 0.005200 -0.702532 -0.711633
vn 0.005200 -0.702532 -0.711633
vn 0.005600 -0.702582 -0.711581
vn -0.004700 -0.701729 -0.712429
vn 0.005200 -0.702532 -0.711633
vn -0.004700 -0.701729 -0.712429
vn -0.006000 -0.702982 -0.711182
vn -0.006000 -0.702982 -0.711182
vn -0.004700 -0.701729 -0.712429
vn -0.007400 -0.704382 -0.709782
vn -0.021399 -0.713167 -0.700668
vn -0.021500 -0.713314 -0.700514
vn -0.020000 -0.712989 -0.700890
vn 0.697115 -0.673214 -0.246605
vn 0.001500 -0.909817 -0.415008
vn 0.001600 -0.909741 -0.415173
vn 0.001600 -0.924987 -0.379995
vn 0.000400 -0.763504 -0.645803
vn 0.000400 -0.763504 -0.645803
vn 0.000400 -0.763504 -0.645803
vn -0.036102 -0.821451 -0.569135
vn -0.036102 -0.821451 -0.569135
vn -0.036102 -0.821451 -0.569135
vn 0.000100 -0.788037 -0.615629
vn 0.000300 -0.790175 -0.612881
vn 0.000200 -0.789218 -0.614114
vn 0.000300 -0.811396 -0.584497
vn 0.000300 -0.811396 -0.584497
vn 0.000300 -0.811396 -0.584497
vn -0.000300 -0.858506 -0.512803
vn -0.000300 -0.860067 -0.510181
vn 0.000900 -0.863045 -0.505126
vn 0.000900 -0.863045 -0.505126
vn -0.000300 -0.860067 -0.510181
vn -0.000300 -0.863184 -0.504890
vn -0.004000 -0.909363 -0.415983
vn -0.004000 -0.909363 -0.415983
vn -0.004000 -0.909363 -0.415983
vn 0.697115 -0.673214 -0.246605
vn 0.707440 -0.668538 -0.229313
vn 0.999595 -0.024300 0.014800
vn 0.995528 -0.080702 0.049101
vn 0.995520 -0.080802 0.049101
vn 0.000000 -0.854291 0.519795
vn 0.000000 -0.854291 0.519795
vn 0.000000 -0.854291 0.519795
vn 0.000000 -0.854291 0.519795
vn 0.000000 -0.854291 0.519795
vn 0.000000 -0.854291 0.519795
vn -0.097899 -0.850190 0.517294
vn -0.098297 -0.850272 0.517083
vn -0.097899 -0.850190 0.517294
vn -0.097899 -0.850190 0.517294
vn -0.098297 -0.850272 0.517083
vn -0.098104 -0.850333 0.517020
vn -0.290210 -0.817529 0.497418
vn -0.289998 -0.817495 0.497597
vn -0.289989 -0.817569 0.497481
vn -0.289989 -0.817569 0.497481
vn -0.289998 -0.817495 0.497597
vn -0.290196 -0.817488 0.497493
vn -0.471509 -0.753414 0.458309
vn -0.471509 -0.753414 0.458309
vn -0.471409 -0.753415 0.458409
vn -0.471409 -0.753415 0.458409
vn -0.877693 -0.409397 0.249098
vn -0.876727 -0.413613 0.245508
vn -0.767288 -0.547891 0.333295
vn -0.634507 -0.660207 0.401904
vn -0.634507 -0.660207 0.401904
vn -0.634389 -0.660389 0.401793
vn -0.774134 -0.538224 0.333215
vn -0.882331 -0.402614 0.243709
vn -0.943041 -0.284212 0.172908
vn -0.943041 -0.284212 0.172908
vn -0.956030 -0.256708 0.141804
vn -0.956054 -0.256615 0.141808
vn -0.990895 -0.102499 0.087300
vn -0.990895 -0.102499 0.087300
vn 0.907808 -0.349703 0.231502
vn 0.907808 -0.349703 0.231502
vn 0.874081 -0.394191 0.283894
vn 0.874081 -0.394191 0.283894
vn 0.954240 -0.246910 0.168707
vn 0.949216 -0.277105 0.149003
vn 0.949216 -0.277105 0.149003
vn 0.990905 -0.102401 0.087300
vn 0.990895 -0.102499 0.087300
vn 0.098097 -0.850173 0.517284
vn 0.098300 -0.850201 0.517200
vn 0.098201 -0.850209 0.517205
vn 0.098201 -0.850209 0.517205
vn 0.098300 -0.850201 0.517200
vn 0.098404 -0.850236 0.517122
vn 0.290196 -0.817488 0.497493
vn 0.290196 -0.817488 0.497493
vn 0.290090 -0.817471 0.497583
vn 0.290090 -0.817471 0.497583
vn 0.290196 -0.817488 0.497493
vn 0.290393 -0.817482 0.497389
vn 0.471197 -0.753495 0.458497
vn 0.471573 -0.753456 0.458173
vn 0.471573 -0.753456 0.458173
vn 0.471573 -0.753456 0.458173
vn 0.471573 -0.753456 0.458173
vn 0.634609 -0.660109 0.401906
vn 0.634609 -0.660109 0.401906
vn 0.634609 -0.660109 0.401906
vn 0.634609 -0.660109 0.401906
vn 0.771733 -0.541723 0.333114
vn 0.770773 -0.542981 0.333288
vn 0.770773 -0.542981 0.333288
vn 0.771733 -0.541723 0.333114
vn 0.905290 -0.366896 0.214098
vn 0.905257 -0.366982 0.214090
vn 0.000000 0.910188 0.414195
vn 0.000000 0.910188 0.414195
vn 0.000000 0.910188 0.414195
vn 0.009000 -0.858928 -0.512017
vn 0.007500 -0.859973 -0.510284
vn 0.007500 -0.859973 -0.510284
vn -0.011299 -0.938357 -0.345484
vn -0.009700 -0.938296 -0.345698
vn -0.009700 -0.938296 -0.345698
vn 0.697115 -0.673214 -0.246605
vn 0.001600 -0.924987 -0.379995
vn 0.001600 -0.909741 -0.415173
vn 0.707440 -0.668538 -0.229313
s off
g link_finger_nail whole_robot
usemtl link_finger_nail:phong1SG
f 47/87/1 46/88/2 22/89/3
f 47/87/4 22/89/5 14/90/6
f 1/53/7 2/50/8 3/40/9
f 4/45/10 5/49/11 3/40/12
f 3/40/13 5/49/14 6/52/15
f 3/40/16 6/52/17 1/53/18
f 7/39/19 8/37/20 3/40/21
f 3/40/22 8/37/23 9/42/24
f 3/40/25 9/42/26 4/45/27
f 10/51/28 11/48/29 7/39/30
f 7/39/31 11/48/32 12/44/33
f 13/32/34 14/33/35 15/34/36
f 13/32/37 15/34/38 16/36/39
f 16/36/40 15/34/41 8/37/42
f 16/36/43 8/37/44 17/38/45
f 17/38/46 8/37/47 7/39/48
f 17/38/49 7/39/50 18/41/51
f 18/41/52 7/39/53 12/44/54
f 2/50/55 19/46/56 3/40/57
f 3/40/58 19/46/59 20/43/60
f 3/40/61 20/43/62 7/39/63
f 7/39/64 20/43/65 21/47/66
f 7/39/67 21/47/68 10/51/69
f 15/1/70 14/2/71 22/3/72 23/4/73 24/5/74
f 25/72/75 26/76/76 27/67/77
f 27/67/78 26/76/79 28/81/80
f 27/67/81 28/81/82 29/77/83
f 30/65/84 31/63/85 27/67/86
f 27/67/87 31/63/88 32/69/89
f 27/67/90 32/69/91 25/72/92
f 33/75/93 34/71/94 30/65/95
f 30/65/96 34/71/97 35/68/98
f 29/77/99 36/73/100 27/67/101
f 27/67/102 36/73/103 37/70/104
f 27/67/105 37/70/106 30/65/107
f 30/65/108 37/70/109 38/74/110
f 30/65/111 38/74/112 33/75/113
f 39/54/114 40/55/115 22/56/116 41/57/117
f 35/68/118 42/66/119 30/65/120
f 30/65/121 42/66/122 43/64/123
f 30/65/124 43/64/125 31/63/126
f 31/63/127 43/64/128 44/62/129
f 31/63/130 44/62/131 45/58/132
f 45/58/133 44/62/134 24/61/135
f 45/58/136 24/61/137 23/60/138
f 39/16/139 46/17/140 47/18/141 13/19/142 40/20/143
f 37/70/144 36/73/145 19/78/146
f 19/78/147 36/73/148 20/83/149
f 37/70/150 19/78/151 38/74/152
f 38/74/153 19/78/154 2/84/155
f 38/74/156 2/84/157 33/75/158
f 33/75/159 2/84/160 1/79/161
f 34/71/162 33/75/163 1/79/164 6/80/165
f 44/6/166 43/8/167 42/9/168 35/10/169 34/11/170 6/12/171 5/13/172 4/14/173 9/15/174 8/7/175
f 24/5/176 44/6/177 8/7/178 15/1/179
f 45/22/180 16/21/181 17/23/182 32/24/183 31/25/184
f 16/21/185 45/22/186 40/20/187 13/19/188
f 20/83/189 36/73/190 21/82/191
f 21/82/192 36/73/193 29/77/194
f 21/82/195 29/77/196 10/85/197
f 10/85/198 29/77/199 28/81/200
f 10/85/201 28/81/202 11/86/203
f 11/30/204 28/31/205 26/29/206 12/28/207
f 12/28/208 26/29/209 25/27/210 18/26/211
f 18/26/212 25/27/213 32/24/214 17/23/215
f 47/35/216 14/33/217 13/32/218
f 22/56/219 40/55/220 45/58/221
f 22/56/222 45/58/223 23/60/224
f 39/54/225 41/57/226 22/56/227 46/59/228
