# Blender v3.2.2 OBJ File: ''
# www.blender.org
o geometry_0.002
v -0.001702 0.036283 -0.032240
v 0.009059 0.036161 -0.031643
v -0.010034 0.035407 -0.030867
v -0.015967 0.035220 -0.028175
v 0.019648 0.036285 -0.026811
v -0.023622 0.035574 -0.022517
v 0.024771 0.032557 -0.022347
v -0.031012 0.036825 -0.010446
v 0.031580 0.032687 -0.011956
v -0.032998 0.036453 0.000202
v 0.030362 -0.044468 -0.014029
v 0.033816 0.032522 0.001815
v -0.031490 0.036207 0.011214
v 0.031709 0.030620 0.011315
v 0.027686 0.037068 0.018928
v -0.027144 0.036629 0.019455
v 0.022003 0.034981 0.025725
v 0.013483 0.036383 0.030847
v 0.026891 0.009192 0.021122
v -0.021219 0.035990 0.026302
v -0.013986 0.034814 0.030946
v 0.004538 0.034998 0.033405
v -0.004222 0.037808 0.033309
v -0.004599 0.027951 0.034149
v 0.016542 -0.020407 0.030426
v 0.031784 -0.058373 0.007558
v -0.027099 -0.065967 -0.000559
v -0.023640 -0.069038 -0.012533
v -0.012878 -0.069038 -0.021784
v -0.032830 -0.058864 -0.005331
v -0.030303 -0.058811 -0.012812
v -0.022219 -0.059232 -0.023640
v -0.015428 -0.059000 -0.028461
v -0.022805 -0.069038 -0.002342
v -0.013775 -0.059900 0.030402
v -0.033091 -0.059354 0.004218
v -0.021344 -0.068521 0.011805
v -0.022865 -0.059575 0.024558
v -0.031490 -0.056226 0.012011
v -0.029033 -0.059193 0.017046
v -0.020355 0.053807 -0.017307
v -0.025455 0.053807 -0.005798
v -0.001579 -0.069038 -0.024817
v -0.024952 0.053807 0.008801
v 0.013028 -0.058157 0.030561
v 0.024323 -0.061978 0.019912
v 0.033191 -0.059487 -0.000353
v 0.023516 -0.069038 0.005856
v 0.016801 -0.064428 0.024088
v 0.021571 -0.065592 0.018841
v 0.028494 -0.062543 0.014076
v 0.005008 -0.069038 0.023375
v 0.007616 -0.057927 0.032735
v 0.026809 0.053807 0.004437
v 0.021217 -0.060079 -0.024806
v 0.005529 -0.059107 -0.031967
v 0.025695 -0.066825 -0.010638
v 0.007197 -0.066048 -0.025852
v -0.016823 -0.057222 0.029546
v -0.004071 -0.068824 0.023558
v -0.013170 -0.068678 0.020232
v 0.016631 -0.069038 -0.016596
v 0.032534 -0.060024 -0.006066
v 0.027497 -0.059924 -0.017947
v 0.001625 -0.059855 0.033501
v -0.005032 -0.060158 0.033005
v -0.007119 -0.058940 -0.031615
v 0.027125 0.053807 -0.006165
v 0.021112 0.053807 0.017575
v -0.016986 0.053807 0.020937
v 0.005632 0.053807 -0.025286
v -0.008062 0.053807 -0.024375
v 0.021162 0.053807 -0.016958
v 0.009584 0.053807 0.025901
v -0.005348 0.053807 0.026272
vn 0.7385 0.2809 -0.6130
vn 0.9577 0.2439 -0.1526
vn 0.8879 0.0109 0.4599
vn 0.7625 0.0291 0.6464
vn -0.2607 0.0919 0.9610
vn 0.0161 0.0843 0.9963
vn 0.0000 -1.0000 0.0000
vn -0.5682 -0.8215 0.0465
vn -0.7594 -0.6484 -0.0531
vn -0.8022 -0.5302 -0.2747
vn -0.7125 -0.4782 -0.5134
vn -0.5179 -0.6073 -0.6025
vn -0.4629 -0.5695 -0.6793
vn -0.6359 -0.0031 0.7718
vn -0.5175 -0.3377 0.7862
vn -0.7728 0.0017 0.6346
vn -0.5552 -0.8271 0.0875
vn -0.7591 -0.6488 -0.0541
vn -0.4894 -0.7403 0.4609
vn -0.5647 -0.7058 0.4278
vn -0.9191 -0.2622 0.2940
vn 0.5412 -0.4239 0.7262
vn 0.5308 -0.5857 0.6125
vn 0.6128 -0.6141 0.4974
vn 0.9012 -0.3773 0.2134
vn 0.5459 -0.7859 0.2904
vn 0.2251 -0.6831 0.6948
vn 0.2743 -0.6058 0.7468
vn 0.2872 -0.5939 0.7516
vn 0.5561 -0.6684 -0.4940
vn 0.4994 -0.7103 -0.4961
vn 0.3525 -0.7239 -0.5930
vn 0.3058 -0.5869 -0.7497
vn -0.2858 -0.0189 0.9581
vn 0.2912 -0.9525 -0.0893
vn 0.7674 -0.5498 -0.3300
vn -0.0037 -0.7371 0.6758
vn 0.9767 -0.0117 0.2143
vn 0.9844 -0.0066 0.1759
vn 0.9505 0.3094 0.0284
vn 0.9262 0.2729 0.2601
vn -0.9797 0.0017 0.2005
vn 0.9113 -0.0166 0.4114
vn 0.8984 -0.0230 0.4386
vn 0.7102 -0.7038 -0.0155
vn 0.8540 0.3654 0.3703
vn 0.7016 -0.7126 -0.0029
vn -0.4132 0.0004 -0.9106
vn 0.7293 -0.6777 0.0938
vn 0.9608 -0.0077 -0.2771
vn 0.0000 1.0000 0.0000
vn 0.9181 -0.0714 -0.3899
vn 0.5235 0.3593 0.7726
vn 0.5507 0.3397 0.7625
vn 0.8343 0.3024 -0.4609
vn -0.3852 0.3819 0.8401
vn 0.1006 0.3453 0.9331
vn 0.2164 0.3111 0.9254
vn 0.3807 0.3780 -0.8439
vn 0.8111 -0.0392 0.5836
vn 0.7258 -0.0379 0.6869
vn 0.8036 0.2709 -0.5300
vn 0.6747 -0.0039 0.7381
vn -0.2032 -0.6211 -0.7570
vn 0.6739 -0.0601 0.7364
vn 0.8005 0.0035 -0.5993
vn 0.8364 -0.0014 -0.5481
vn -0.2146 -0.7305 0.6483
vn 0.2693 -0.9201 0.2845
vn -0.0244 -0.9994 0.0264
vn -0.0633 -0.9971 0.0430
vn 0.7377 -0.0104 -0.6751
vn 0.0558 0.3480 -0.9358
vn -0.8308 0.3661 0.4193
vn -0.8017 0.2926 -0.5212
vn 0.9267 0.2726 0.2588
vn -0.9243 0.3463 -0.1603
vn -0.6907 0.3540 0.6306
vn -0.0159 -0.7433 0.6688
vn -0.9228 0.3612 0.1345
vn -0.4636 0.3547 0.8119
vn -0.3226 0.3620 0.8746
vn 0.5177 0.0215 0.8553
vn 0.2995 -0.8370 0.4580
vn -0.0231 -0.9995 0.0191
vn 0.6548 -0.0051 -0.7557
vn -0.0611 0.3902 -0.9187
vn -0.5538 0.3190 -0.7691
vn 0.2738 0.0076 0.9618
vn 0.2459 0.0012 0.9693
vn 0.3714 -0.0313 0.9279
vn 0.2258 -0.8360 -0.5001
vn 0.4153 -0.0122 -0.9096
vn -0.6857 -0.6920 0.2256
vn 0.0823 -0.0015 0.9966
vn 0.1278 -0.0029 0.9918
vn 0.1278 -0.6381 -0.7592
vn -0.4012 -0.7051 0.5847
vn -0.8525 0.0066 -0.5226
vn -0.8014 -0.0048 -0.5981
vn -0.1878 0.3446 -0.9198
vn -0.0304 -0.5696 -0.8213
vn 0.0554 0.0013 -0.9985
vn -0.0279 -0.0050 -0.9996
vn -0.5789 -0.0008 -0.8154
vn -0.5944 0.0007 -0.8042
vn -0.5398 0.0038 0.8418
vn -0.9996 -0.0002 -0.0273
vn -0.8978 0.0038 0.4404
vn -0.3298 -0.0106 0.9440
vn -0.0737 -0.0126 0.9972
vn -0.2854 -0.5800 -0.7630
vn -0.1629 0.0028 -0.9866
vn -0.9831 0.0089 -0.1830
vn -0.7563 -0.0015 0.6542
vn -0.2828 -0.0059 0.9592
vn -0.3549 -0.0036 -0.9349
vn 0.4146 -0.0123 -0.9099
vn -0.8847 0.0057 0.4662
vn -0.9474 0.0009 -0.3201
vn 0.0228 0.4038 0.9146
vn -0.4438 0.3568 -0.8220
vn -0.2408 -0.7418 0.6259
vn 0.9892 -0.0012 -0.1468
vn 0.4302 0.4139 -0.8022
vn -0.9907 0.0067 0.1358
vn -0.7632 0.4081 0.5010
vn -0.8459 0.3794 -0.3748
vn -0.9126 0.4075 0.0314
vn -0.6701 -0.7244 0.1622
vn 0.6765 0.3194 0.6636
s off
f 5//1 73//1 7//1
f 68//2 12//2 9//2
f 14//3 15//3 19//3
f 17//4 19//4 15//4
f 21//5 24//5 23//5
f 23//6 24//6 22//6
f 34//7 28//7 29//7
f 27//8 28//8 34//8
f 28//9 27//9 30//9
f 28//10 30//10 31//10
f 28//11 31//11 32//11
f 28//12 32//12 29//12
f 32//13 33//13 29//13
f 20//14 38//14 59//14
f 59//15 38//15 35//15
f 20//16 40//16 38//16
f 37//17 27//17 34//17
f 36//18 30//18 27//18
f 37//19 61//19 38//19
f 37//20 38//20 40//20
f 36//21 40//21 39//21
f 45//22 49//22 46//22
f 46//23 49//23 50//23
f 46//24 50//24 51//24
f 26//25 51//25 47//25
f 48//26 51//26 50//26
f 52//27 49//27 65//27
f 45//28 53//28 49//28
f 49//29 53//29 65//29
f 64//30 57//30 55//30
f 57//31 62//31 55//31
f 55//32 62//32 58//32
f 55//33 58//33 56//33
f 66//34 59//34 35//34
f 62//35 57//35 48//35
f 57//36 64//36 63//36
f 66//37 60//37 52//37
f 14//38 47//38 12//38
f 14//39 26//39 47//39
f 68//40 54//40 12//40
f 14//41 12//41 54//41
f 39//42 13//42 36//42
f 14//43 19//43 26//43
f 19//44 51//44 26//44
f 47//45 57//45 63//45
f 69//46 15//46 54//46
f 47//47 48//47 57//47
f 33//48 4//48 3//48
f 51//49 48//49 47//49
f 9//50 63//50 11//50
f 68//51 73//51 54//51
f 73//51 74//51 54//51
f 74//51 69//51 54//51
f 11//52 63//52 64//52
f 71//51 75//51 73//51
f 75//51 74//51 73//51
f 69//53 18//53 17//53
f 74//54 18//54 69//54
f 73//55 68//55 9//55
f 21//56 75//56 70//56
f 71//51 41//51 75//51
f 41//51 42//51 75//51
f 42//51 44//51 75//51
f 44//51 70//51 75//51
f 23//57 22//57 74//57
f 22//58 18//58 74//58
f 2//59 71//59 5//59
f 46//60 51//60 19//60
f 19//61 25//61 46//61
f 7//62 73//62 9//62
f 72//51 41//51 71//51
f 17//63 25//63 19//63
f 67//64 43//64 29//64
f 45//65 46//65 25//65
f 11//66 64//66 9//66
f 64//67 7//67 9//67
f 35//68 60//68 66//68
f 50//69 52//69 48//69
f 43//7 62//7 34//7
f 52//70 61//70 34//70
f 61//71 37//71 34//71
f 55//72 7//72 64//72
f 2//73 1//73 71//73
f 44//74 13//74 16//74
f 6//75 8//75 41//75
f 14//76 54//76 15//76
f 8//77 10//77 42//77
f 70//78 16//78 20//78
f 52//79 65//79 66//79
f 44//80 10//80 13//80
f 20//81 21//81 70//81
f 21//82 23//82 75//82
f 17//83 18//83 25//83
f 50//84 49//84 52//84
f 60//85 61//85 52//85
f 29//7 43//7 34//7
f 5//86 7//86 55//86
f 1//87 72//87 71//87
f 4//88 6//88 41//88
f 18//89 22//89 25//89
f 22//90 53//90 25//90
f 53//91 45//91 25//91
f 58//92 62//92 43//92
f 2//93 5//93 55//93
f 40//94 36//94 37//94
f 65//95 22//95 24//95
f 22//96 65//96 53//96
f 43//97 56//97 58//97
f 35//98 38//98 61//98
f 31//99 8//99 6//99
f 32//100 31//100 6//100
f 3//101 72//101 1//101
f 67//102 56//102 43//102
f 56//103 1//103 2//103
f 56//104 67//104 1//104
f 33//105 32//105 4//105
f 4//106 32//106 6//106
f 62//7 48//7 52//7 34//7
f 20//107 59//107 21//107
f 30//108 36//108 10//108
f 39//109 40//109 13//109
f 21//110 66//110 24//110
f 66//111 65//111 24//111
f 33//112 67//112 29//112
f 1//113 67//113 3//113
f 30//114 10//114 8//114
f 40//115 20//115 16//115
f 59//116 66//116 21//116
f 67//117 33//117 3//117
f 2//118 55//118 56//118
f 16//119 13//119 40//119
f 31//120 30//120 8//120
f 23//121 74//121 75//121
f 72//122 3//122 4//122 41//122
f 35//123 61//123 60//123
f 47//124 63//124 9//124 12//124
f 5//125 71//125 73//125
f 36//126 13//126 10//126
f 16//127 70//127 44//127
f 8//128 42//128 41//128
f 10//129 44//129 42//129
f 27//130 37//130 36//130
f 17//131 15//131 69//131
