# This file uses centimeters as units for non-parametric coordinates.

mtllib link_finger_right.mtl
g default
v 0.020203 0.027018 -0.007353
v 0.022083 0.026889 -0.008037
v 0.021273 0.026582 -0.003116
v 0.023264 0.026404 -0.003323
v 0.021464 0.026221 0.001250
v 0.023450 0.026006 0.001533
v 0.020767 0.025951 0.005565
v 0.025280 0.025910 0.000484
v 0.019213 0.025783 0.009649
v 0.013820 0.025774 0.016470
v 0.016865 0.025723 0.013335
v 0.027380 0.025721 0.000283
v 0.007366 0.025641 0.026195
v 0.009287 0.025641 0.023806
v 0.029376 0.025473 0.000966
v 0.015489 0.025436 0.018707
v 0.015324 0.025329 0.020272
v 0.030912 0.025210 0.002411
v 0.012298 0.025196 0.025731
v 0.017967 0.023818 0.036277
v 0.039671 0.023439 0.014131
v 0.043559 0.022584 0.020212
v 0.029271 0.021990 0.045564
v 0.051502 0.020675 0.034701
v 0.041219 0.020164 0.054006
v 0.056762 0.019561 0.042377
v 0.047430 0.019076 0.060172
v 0.063479 0.018356 0.049408
v 0.054357 0.017983 0.065520
v 0.061893 0.016900 0.069970
v 0.062557 0.016669 0.072097
v 0.072120 0.016610 0.060954
v 0.072731 0.016379 0.063140
v 0.071491 0.016351 0.065041
v 0.071525 0.015281 0.078655
v 0.073993 0.015030 0.078791
v 0.077877 0.014799 0.076919
v 0.078720 0.014759 0.076382
v 0.078754 0.014488 0.079790
v 0.079498 -0.014408 0.079888
v 0.078720 -0.014759 0.076382
v 0.077877 -0.014799 0.076919
v 0.073993 -0.015030 0.078791
v 0.069321 -0.015584 0.077536
v 0.071491 -0.016351 0.065041
v 0.072731 -0.016379 0.063140
v 0.072120 -0.016610 0.060954
v 0.062557 -0.016669 0.072097
v 0.061893 -0.016900 0.069970
v 0.054357 -0.017983 0.065520
v 0.063479 -0.018356 0.049408
v 0.047430 -0.019076 0.060172
v 0.056762 -0.019561 0.042377
v 0.041219 -0.020164 0.054006
v 0.051502 -0.020675 0.034701
v 0.029271 -0.021990 0.045564
v 0.043559 -0.022584 0.020212
v 0.039671 -0.023439 0.014131
v 0.017967 -0.023818 0.036277
v 0.012298 -0.025196 0.025731
v 0.030912 -0.025210 0.002411
v 0.015324 -0.025329 0.020272
v 0.029376 -0.025473 0.000966
v 0.015106 -0.025528 0.018002
v 0.007366 -0.025641 0.026195
v 0.009287 -0.025641 0.023806
v 0.027380 -0.025721 0.000283
v 0.016865 -0.025723 0.013335
v 0.013820 -0.025774 0.016470
v 0.019213 -0.025783 0.009649
v 0.025280 -0.025910 0.000484
v 0.020767 -0.025951 0.005565
v 0.023450 -0.026006 0.001533
v 0.021464 -0.026221 0.001250
v 0.023264 -0.026404 -0.003323
v 0.021273 -0.026582 -0.003116
v 0.022083 -0.026889 -0.008037
v 0.020203 -0.027018 -0.007353
vn -0.960696 0.000000 0.277601
vn -0.960696 0.000000 0.277601
vn -0.960696 0.000000 0.277601
vn -0.977356 0.000000 0.211602
vn -0.977356 0.000000 0.211602
vn -0.977356 0.000000 0.211602
vn -0.996985 0.000000 0.077597
vn -0.996985 0.000000 0.077597
vn -0.996985 0.000000 0.077597
vn -0.999954 0.000000 0.009592
vn -0.999954 0.000000 0.009592
vn -0.999954 0.000000 0.009592
vn -0.992079 0.000000 -0.125614
vn -0.992079 0.000000 -0.125614
vn -0.992079 0.000000 -0.125614
vn -0.981235 0.000000 -0.192815
vn -0.981235 0.000000 -0.192815
vn -0.981235 0.000000 -0.192815
vn -0.946182 0.000000 -0.323635
vn -0.946182 0.000000 -0.323635
vn -0.946182 0.000000 -0.323635
vn -0.921973 0.000000 -0.387254
vn -0.921973 0.000000 -0.387254
vn -0.921973 0.000000 -0.387254
vn -0.861190 0.000000 -0.508283
vn -0.861190 0.000000 -0.508283
vn -0.861190 0.000000 -0.508283
vn -0.824616 0.000000 -0.565693
vn -0.824616 0.000000 -0.565693
vn -0.824616 0.000000 -0.565693
vn -0.740614 0.000000 -0.671930
vn -0.740614 0.000000 -0.671930
vn -0.740614 0.000000 -0.671930
vn -0.693187 0.000000 -0.720758
vn -0.693187 0.000000 -0.720758
vn -0.693187 0.000000 -0.720758
vn -0.342020 0.000000 -0.939693
vn -0.342020 0.000000 -0.939693
vn -0.342020 0.000000 -0.939693
vn -0.342020 0.000000 -0.939693
vn -0.342020 0.000000 -0.939693
vn -0.342020 0.000000 -0.939693
vn 0.999993 0.000000 -0.003657
vn 0.999993 0.000000 -0.003657
vn 0.999993 0.000000 -0.003657
vn 0.997341 0.000000 -0.072872
vn 0.997341 0.000000 -0.072872
vn 0.997341 0.000000 -0.072872
vn 0.977856 0.000000 -0.209278
vn 0.977856 0.000000 -0.209278
vn 0.977856 0.000000 -0.209278
vn 0.961023 0.000000 -0.276467
vn 0.961023 0.000000 -0.276467
vn 0.961023 0.000000 -0.276467
vn 0.735555 0.000000 -0.677465
vn 0.735555 0.000000 -0.677465
vn 0.735555 0.000000 -0.677465
vn 0.631023 0.000000 -0.775764
vn 0.631023 0.000000 -0.775764
vn 0.631023 0.000000 -0.775764
vn 0.390722 0.000000 -0.920509
vn 0.390722 0.000000 -0.920509
vn 0.390722 0.000000 -0.920509
vn 0.254954 0.000000 -0.966953
vn 0.254954 0.000000 -0.966953
vn 0.254954 0.000000 -0.966953
vn -0.023652 0.000000 -0.999720
vn -0.023652 0.000000 -0.999720
vn -0.023652 0.000000 -0.999720
vn -0.166491 0.000000 -0.986043
vn -0.166491 0.000000 -0.986043
vn -0.166491 0.000000 -0.986043
vn -0.433817 0.000000 -0.901001
vn -0.433817 0.000000 -0.901001
vn -0.433817 0.000000 -0.901001
vn -0.558304 0.000000 -0.829637
vn -0.558304 0.000000 -0.829637
vn -0.558304 0.000000 -0.829637
vn 0.793729 0.000000 -0.608271
vn 0.793729 0.000000 -0.608271
vn 0.793729 0.000000 -0.608271
vn 0.885513 0.000000 -0.464615
vn 0.885513 0.000000 -0.464615
vn 0.885513 0.000000 -0.464615
vn 0.849040 0.000000 -0.528329
vn 0.849040 0.000000 -0.528329
vn 0.849040 0.000000 -0.528329
vn 0.835849 0.000000 -0.548959
vn 0.835849 0.000000 -0.548959
vn 0.835849 0.000000 -0.548959
vn 0.793322 0.000000 -0.608802
vn 0.793322 0.000000 -0.608802
vn 0.793322 0.000000 -0.608802
vn 0.815869 0.000000 -0.578236
vn 0.815869 0.000000 -0.578236
vn 0.815869 0.000000 -0.578236
vn 0.833724 0.000000 -0.552182
vn 0.833724 0.000000 -0.552182
vn 0.833724 0.000000 -0.552182
vn 0.882200 0.000000 -0.470875
vn 0.882200 0.000000 -0.470875
vn 0.882200 0.000000 -0.470875
vn 0.811549 0.000000 -0.584285
vn 0.811549 0.000000 -0.584285
vn 0.811549 0.000000 -0.584285
vn 0.741995 0.000000 -0.670405
vn 0.741995 0.000000 -0.670405
vn 0.741995 0.000000 -0.670405
vn 0.716722 0.000000 -0.697359
vn 0.716722 0.000000 -0.697359
vn 0.716722 0.000000 -0.697359
vn 0.811549 0.000000 -0.584285
vn 0.811549 0.000000 -0.584285
vn 0.811549 0.000000 -0.584285
vn 0.752579 0.000000 0.658502
vn 0.752579 0.000000 0.658502
vn 0.752579 0.000000 0.658502
vn 0.905930 0.000000 0.423428
vn 0.905930 0.000000 0.423428
vn 0.905930 0.000000 0.423428
vn 0.991332 0.000000 -0.131378
vn 0.991332 0.000000 -0.131378
vn 0.991332 0.000000 -0.131378
vn 0.915777 0.000000 -0.401688
vn 0.915777 0.000000 -0.401688
vn 0.915777 0.000000 -0.401688
vn 0.843260 0.000000 -0.537506
vn 0.843260 0.000000 -0.537506
vn 0.843260 0.000000 -0.537506
vn 0.843260 0.000000 -0.537506
vn 0.843260 0.000000 -0.537506
vn 0.843260 0.000000 -0.537506
vn 0.994743 0.000000 -0.102406
vn 0.994743 0.000000 -0.102406
vn 0.994743 0.000000 -0.102406
vn 0.944661 0.000000 -0.328047
vn 0.944661 0.000000 -0.328047
vn 0.944661 0.000000 -0.328047
vn -0.926081 0.000000 0.377325
vn -0.926081 0.000000 0.377325
vn -0.926081 0.000000 0.377325
vn -0.978736 0.000000 0.205123
vn -0.978736 0.000000 0.205123
vn -0.978736 0.000000 0.205123
vn 0.537506 0.000000 0.843260
vn 0.537506 0.000000 0.843260
vn 0.537506 0.000000 0.843260
vn -0.124617 0.000000 0.992205
vn -0.124617 0.000000 0.992205
vn -0.124617 0.000000 0.992205
vn 0.015152 0.000000 0.999885
vn 0.015152 0.000000 0.999885
vn 0.015152 0.000000 0.999885
vn 0.416931 0.000000 0.908938
vn 0.416931 0.000000 0.908938
vn 0.416931 0.000000 0.908938
vn -0.626665 0.000000 0.779289
vn -0.626665 0.000000 0.779289
vn -0.626665 0.000000 0.779289
vn -0.626665 0.000000 0.779289
vn -0.626665 0.000000 0.779289
vn -0.626665 0.000000 0.779289
vn -0.932665 0.000000 0.360745
vn -0.932665 0.000000 0.360745
vn -0.932665 0.000000 0.360745
vn -0.807938 0.000000 0.589267
vn -0.807938 0.000000 0.589267
vn -0.807938 0.000000 0.589267
vn -0.719082 0.000000 0.694925
vn -0.719082 0.000000 0.694925
vn -0.719082 0.000000 0.694925
vn -0.689666 0.000000 0.724128
vn -0.689666 0.000000 0.724128
vn -0.689666 0.000000 0.724128
vn -0.627441 0.000000 0.778664
vn -0.627441 0.000000 0.778664
vn -0.627441 0.000000 0.778664
vn -0.594633 0.000000 0.803997
vn -0.594633 0.000000 0.803997
vn -0.594633 0.000000 0.803997
vn -0.526131 0.000000 0.850403
vn -0.526131 0.000000 0.850403
vn -0.526131 0.000000 0.850403
vn -0.490437 0.000000 0.871477
vn -0.490437 0.000000 0.871477
vn -0.490437 0.000000 0.871477
vn -0.697896 0.000000 0.716199
vn -0.697896 0.000000 0.716199
vn -0.697896 0.000000 0.716199
vn -0.680349 0.000000 0.732888
vn -0.680349 0.000000 0.732888
vn -0.680349 0.000000 0.732888
vn -0.644092 0.000000 0.764948
vn -0.644092 0.000000 0.764948
vn -0.644092 0.000000 0.764948
vn -0.625381 0.000000 0.780320
vn -0.625381 0.000000 0.780320
vn -0.625381 0.000000 0.780320
vn -0.586893 0.000000 0.809664
vn -0.586893 0.000000 0.809664
vn -0.586893 0.000000 0.809664
vn -0.567116 0.000000 0.823638
vn -0.567116 0.000000 0.823638
vn -0.567116 0.000000 0.823638
vn -0.779289 0.000000 -0.626665
vn -0.779289 0.000000 -0.626665
vn -0.779289 0.000000 -0.626665
vn -0.779289 0.000000 -0.626665
vn -0.779289 0.000000 -0.626665
vn -0.779289 0.000000 -0.626665
vn 0.538733 0.000000 -0.842476
vn 0.538733 0.000000 -0.842476
vn 0.538733 0.000000 -0.842476
vn 0.538733 0.000000 -0.842476
vn 0.538733 0.000000 -0.842476
vn 0.538733 0.000000 -0.842476
vn -0.874620 0.000000 -0.484810
vn -0.874620 0.000000 -0.484810
vn -0.874620 0.000000 -0.484810
vn -0.874620 0.000000 -0.484810
vn -0.874620 0.000000 -0.484810
vn -0.874620 0.000000 -0.484810
vn -0.986630 0.000000 0.162977
vn -0.986630 0.000000 0.162977
vn -0.986630 0.000000 0.162977
vn -0.999600 0.000000 0.028276
vn -0.999600 0.000000 0.028276
vn -0.999600 0.000000 0.028276
vn -0.766044 0.000000 0.642788
vn -0.766044 0.000000 0.642788
vn -0.766044 0.000000 0.642788
vn -0.766044 0.000000 0.642788
vn -0.766044 0.000000 0.642788
vn -0.766044 0.000000 0.642788
vn 0.096659 -0.992278 0.077728
vn 0.096659 -0.992278 0.077728
vn 0.096659 -0.992278 0.077728
vn 0.096659 -0.992278 0.077728
vn 0.096659 -0.992278 0.077728
vn 0.096659 -0.992278 0.077728
vn 0.096659 -0.992278 0.077728
vn 0.096659 -0.992278 0.077728
vn 0.096659 -0.992278 0.077728
vn 0.096659 -0.992278 0.077728
vn 0.096659 -0.992278 0.077728
vn 0.096659 -0.992278 0.077728
vn 0.096659 -0.992278 0.077728
vn 0.096659 -0.992278 0.077728
vn 0.096659 -0.992278 0.077728
vn 0.096659 -0.992278 0.077728
vn 0.096659 -0.992278 0.077728
vn 0.096659 -0.992278 0.077728
vn 0.096659 -0.992278 0.077728
vn 0.096659 -0.992278 0.077728
vn 0.096659 -0.992278 0.077728
vn 0.096659 -0.992278 0.077728
vn 0.096659 -0.992278 0.077728
vn 0.096659 -0.992278 0.077728
vn 0.096659 -0.992278 0.077728
vn 0.096659 -0.992278 0.077728
vn 0.096659 -0.992278 0.077728
vn 0.096659 -0.992278 0.077728
vn 0.096659 -0.992278 0.077728
vn 0.096659 -0.992278 0.077728
vn 0.096659 -0.992278 0.077728
vn 0.096659 -0.992278 0.077728
vn 0.096659 -0.992278 0.077728
vn 0.096659 -0.992278 0.077728
vn 0.096659 -0.992278 0.077728
vn 0.096659 -0.992278 0.077728
vn 0.096659 -0.992278 0.077728
vn 0.096659 -0.992278 0.077728
vn 0.096659 -0.992278 0.077728
vn 0.096659 -0.992278 0.077728
vn 0.096659 -0.992278 0.077728
vn 0.096659 -0.992278 0.077728
vn 0.096659 -0.992278 0.077728
vn 0.096659 -0.992278 0.077728
vn 0.096659 -0.992278 0.077728
vn 0.096659 -0.992278 0.077728
vn 0.096659 -0.992278 0.077728
vn 0.096659 -0.992278 0.077728
vn 0.096659 -0.992278 0.077728
vn 0.096659 -0.992278 0.077728
vn 0.096659 -0.992278 0.077728
vn 0.096659 -0.992278 0.077728
vn 0.096659 -0.992278 0.077728
vn 0.096659 -0.992278 0.077728
vn 0.096659 -0.992278 0.077728
vn 0.096659 -0.992278 0.077728
vn 0.096659 -0.992278 0.077728
vn 0.096659 -0.992278 0.077728
vn 0.096659 -0.992278 0.077728
vn 0.096659 -0.992278 0.077728
vn 0.096659 -0.992278 0.077728
vn 0.096659 -0.992278 0.077728
vn 0.096659 -0.992278 0.077728
vn 0.096659 -0.992278 0.077728
vn 0.096659 -0.992278 0.077728
vn 0.096659 -0.992278 0.077728
vn 0.096659 -0.992278 0.077728
vn 0.096659 -0.992278 0.077728
vn 0.096659 -0.992278 0.077728
vn 0.096659 -0.992278 0.077728
vn 0.096659 -0.992278 0.077728
vn 0.096659 -0.992278 0.077728
vn 0.096659 -0.992278 0.077728
vn 0.096659 -0.992278 0.077728
vn 0.096659 -0.992278 0.077728
vn 0.096659 -0.992278 0.077728
vn 0.096659 -0.992278 0.077728
vn 0.096659 -0.992278 0.077728
vn 0.096659 -0.992278 0.077728
vn 0.096659 -0.992278 0.077728
vn 0.096659 -0.992278 0.077728
vn 0.096659 -0.992278 0.077728
vn 0.096659 -0.992278 0.077728
vn 0.096659 -0.992278 0.077728
vn 0.096659 -0.992278 0.077728
vn 0.096659 -0.992278 0.077728
vn 0.096659 -0.992278 0.077728
vn 0.096659 -0.992278 0.077728
vn 0.096659 -0.992278 0.077728
vn 0.096659 -0.992278 0.077728
vn 0.096659 -0.992278 0.077728
vn 0.096659 -0.992278 0.077728
vn 0.096659 -0.992278 0.077728
vn 0.096659 -0.992278 0.077728
vn 0.096659 -0.992278 0.077728
vn 0.096659 -0.992278 0.077728
vn 0.096659 -0.992278 0.077728
vn 0.096659 -0.992278 0.077728
vn 0.096659 -0.992278 0.077728
vn 0.096659 -0.992278 0.077728
vn 0.096659 -0.992278 0.077728
vn 0.096659 -0.992278 0.077728
vn 0.096659 -0.992278 0.077728
vn 0.096659 -0.992278 0.077728
vn 0.096659 -0.992278 0.077728
vn 0.096659 -0.992278 0.077728
vn 0.096659 -0.992278 0.077728
vn 0.096659 -0.992278 0.077728
vn 0.096659 -0.992278 0.077728
vn 0.096659 -0.992278 0.077728
vn 0.096659 -0.992278 0.077728
vn 0.096659 0.992278 0.077728
vn 0.096659 0.992278 0.077728
vn 0.096659 0.992278 0.077728
vn 0.096659 0.992278 0.077728
vn 0.096659 0.992278 0.077728
vn 0.096659 0.992278 0.077728
vn 0.096659 0.992278 0.077728
vn 0.096659 0.992278 0.077728
vn 0.096659 0.992278 0.077728
vn 0.096659 0.992278 0.077728
vn 0.096659 0.992278 0.077728
vn 0.096659 0.992278 0.077728
vn 0.096659 0.992278 0.077728
vn 0.096659 0.992278 0.077728
vn 0.096659 0.992278 0.077728
vn 0.096659 0.992278 0.077728
vn 0.096659 0.992278 0.077728
vn 0.096659 0.992278 0.077728
vn 0.096659 0.992278 0.077728
vn 0.096659 0.992278 0.077728
vn 0.096659 0.992278 0.077728
vn 0.096659 0.992278 0.077728
vn 0.096659 0.992278 0.077728
vn 0.096659 0.992278 0.077728
vn 0.096659 0.992278 0.077728
vn 0.096659 0.992278 0.077728
vn 0.096659 0.992278 0.077728
vn 0.096659 0.992278 0.077728
vn 0.096659 0.992278 0.077728
vn 0.096659 0.992278 0.077728
vn 0.096659 0.992278 0.077728
vn 0.096659 0.992278 0.077728
vn 0.096659 0.992278 0.077728
vn 0.096659 0.992278 0.077728
vn 0.096659 0.992278 0.077728
vn 0.096659 0.992278 0.077728
vn 0.096659 0.992278 0.077728
vn 0.096659 0.992278 0.077728
vn 0.096659 0.992278 0.077728
vn 0.096659 0.992278 0.077728
vn 0.096659 0.992278 0.077728
vn 0.096659 0.992278 0.077728
vn 0.096659 0.992278 0.077728
vn 0.096659 0.992278 0.077728
vn 0.096659 0.992278 0.077728
vn 0.096659 0.992278 0.077728
vn 0.096659 0.992278 0.077728
vn 0.096659 0.992278 0.077728
vn 0.096659 0.992278 0.077728
vn 0.096659 0.992278 0.077728
vn 0.096659 0.992278 0.077728
vn 0.096659 0.992278 0.077728
vn 0.096659 0.992278 0.077728
vn 0.096659 0.992278 0.077728
vn 0.096659 0.992278 0.077728
vn 0.096659 0.992278 0.077728
vn 0.096659 0.992278 0.077728
vn 0.096659 0.992278 0.077728
vn 0.096659 0.992278 0.077728
vn 0.096659 0.992278 0.077728
vn 0.096659 0.992278 0.077728
vn 0.096659 0.992278 0.077728
vn 0.096659 0.992278 0.077728
vn 0.096659 0.992278 0.077728
vn 0.096659 0.992278 0.077728
vn 0.096659 0.992278 0.077728
vn 0.096659 0.992278 0.077728
vn 0.096659 0.992278 0.077728
vn 0.096659 0.992278 0.077728
vn 0.096659 0.992278 0.077728
vn 0.096659 0.992278 0.077728
vn 0.096659 0.992278 0.077728
vn 0.096659 0.992278 0.077728
vn 0.096659 0.992278 0.077728
vn 0.096659 0.992278 0.077728
vn 0.096659 0.992278 0.077728
vn 0.096659 0.992278 0.077728
vn 0.096659 0.992278 0.077728
vn 0.096659 0.992278 0.077728
vn 0.096659 0.992278 0.077728
vn 0.096659 0.992278 0.077728
vn 0.096659 0.992278 0.077728
vn 0.096659 0.992278 0.077728
vn 0.096659 0.992278 0.077728
vn 0.096659 0.992278 0.077728
vn 0.096659 0.992278 0.077728
vn 0.096659 0.992278 0.077728
vn 0.096659 0.992278 0.077728
vn 0.096659 0.992278 0.077728
vn 0.096659 0.992278 0.077728
vn 0.096659 0.992278 0.077728
vn 0.096659 0.992278 0.077728
vn 0.096659 0.992278 0.077728
vn 0.096659 0.992278 0.077728
vn 0.096659 0.992278 0.077728
vn 0.096659 0.992278 0.077728
vn 0.096659 0.992278 0.077728
vn 0.096659 0.992278 0.077728
vn 0.096659 0.992278 0.077728
vn 0.096659 0.992278 0.077728
vn 0.096659 0.992278 0.077728
vn 0.096659 0.992278 0.077728
vn 0.096659 0.992278 0.077728
vn 0.096659 0.992278 0.077728
vn 0.096659 0.992278 0.077728
vn 0.096659 0.992278 0.077728
vn 0.096659 0.992278 0.077728
vn 0.096659 0.992278 0.077728
vn 0.096659 0.992278 0.077728
vn 0.096659 0.992278 0.077728
vn 0.096659 0.992278 0.077728
s off
g link_finger_left5:polySurface1link_finger_left
usemtl link_finger_left2:initialShadingGroup
f 1//1 78//2 76//3
f 1//4 76//5 3//6
f 3//7 76//8 74//9
f 3//10 74//11 5//12
f 5//13 74//14 72//15
f 5//16 72//17 7//18
f 7//19 72//20 70//21
f 7//22 70//23 9//24
f 9//25 70//26 68//27
f 9//28 68//29 11//30
f 11//31 68//32 69//33
f 11//34 69//35 10//36
f 78//37 1//38 77//39
f 77//40 1//41 2//42
f 6//43 73//44 75//45
f 6//46 75//47 4//48
f 4//49 75//50 77//51
f 4//52 77//53 2//54
f 18//55 61//56 63//57
f 18//58 63//59 15//60
f 15//61 63//62 67//63
f 15//64 67//65 12//66
f 12//67 67//68 71//69
f 12//70 71//71 8//72
f 8//73 71//74 73//75
f 8//76 73//77 6//78
f 58//79 61//80 18//81
f 22//82 55//83 57//84
f 22//85 57//86 58//87
f 22//88 58//89 21//90
f 21//91 58//92 18//93
f 26//94 53//95 55//96
f 26//97 55//98 24//99
f 24//100 55//101 22//102
f 28//103 47//104 51//105
f 28//106 51//107 53//108
f 28//109 53//110 26//111
f 32//112 47//113 28//114
f 34//115 45//116 33//117
f 33//118 45//119 46//120
f 33//121 46//122 32//123
f 32//124 46//125 47//126
f 34//127 38//128 45//129
f 45//130 38//131 41//132
f 39//133 40//134 38//135
f 38//136 40//137 41//138
f 37//139 42//140 39//141
f 39//142 42//143 40//144
f 42//145 37//146 43//147
f 35//148 44//149 43//150
f 35//151 43//152 36//153
f 36//154 43//155 37//156
f 35//157 31//158 44//159
f 44//160 31//161 48//162
f 30//163 49//164 31//165
f 31//166 49//167 48//168
f 25//169 54//170 52//171
f 25//172 52//173 27//174
f 27//175 52//176 50//177
f 27//178 50//179 29//180
f 29//181 50//182 49//183
f 29//184 49//185 30//186
f 13//187 65//188 59//189
f 13//190 59//191 20//192
f 20//193 59//194 56//195
f 20//196 56//197 23//198
f 23//199 56//200 54//201
f 23//202 54//203 25//204
f 13//205 14//206 65//207
f 65//208 14//209 66//210
f 66//211 14//212 60//213
f 60//214 14//215 19//216
f 19//217 17//218 60//219
f 60//220 17//221 62//222
f 16//223 64//224 62//225
f 16//226 62//227 17//228
f 16//229 10//230 64//231
f 64//232 10//233 69//234
f 59//235 65//236 66//237
f 78//238 77//239 76//240
f 76//241 77//242 75//243
f 76//244 75//245 74//246
f 74//247 75//248 73//249
f 74//250 73//251 72//252
f 52//253 45//254 50//255
f 50//256 45//257 49//258
f 55//259 62//260 57//261
f 57//262 62//263 58//264
f 70//265 58//266 68//267
f 40//268 42//269 41//270
f 41//271 42//272 45//273
f 45//274 42//275 43//276
f 49//277 45//278 48//279
f 48//280 45//281 44//282
f 55//283 56//284 59//285
f 51//286 47//287 52//288
f 69//289 68//290 64//291
f 64//292 68//293 58//294
f 64//295 58//296 62//297
f 62//298 55//299 59//300
f 62//301 59//302 60//303
f 60//304 59//305 66//306
f 56//307 55//308 54//309
f 54//310 55//311 53//312
f 54//313 53//314 52//315
f 52//316 53//317 51//318
f 45//319 43//320 44//321
f 67//322 63//323 70//324
f 70//325 63//326 61//327
f 70//328 61//329 58//330
f 46//331 45//332 52//333
f 46//334 52//335 47//336
f 72//337 73//338 70//339
f 70//340 73//341 71//342
f 70//343 71//344 67//345
f 11//346 10//347 16//348
f 39//349 38//350 37//351
f 11//352 16//353 9//354
f 9//355 16//356 6//357
f 9//358 6//359 7//360
f 2//361 1//362 4//363
f 4//364 1//365 3//366
f 4//367 3//368 6//369
f 6//370 3//371 5//372
f 6//373 5//374 7//375
f 29//376 30//377 34//378
f 34//379 30//380 31//381
f 34//382 31//383 35//384
f 19//385 24//386 17//387
f 17//388 24//389 22//390
f 17//391 22//392 16//393
f 16//394 22//395 21//396
f 16//397 21//398 18//399
f 37//400 38//401 34//402
f 37//403 34//404 35//405
f 37//406 35//407 36//408
f 33//409 32//410 27//411
f 27//412 32//413 28//414
f 27//415 28//416 26//417
f 27//418 26//419 25//420
f 25//421 26//422 23//423
f 23//424 26//425 24//426
f 23//427 24//428 20//429
f 20//430 24//431 19//432
f 20//433 19//434 13//435
f 13//436 19//437 14//438
f 8//439 6//440 12//441
f 12//442 6//443 16//444
f 12//445 16//446 15//447
f 15//448 16//449 18//450
f 29//451 34//452 27//453
f 27//454 34//455 33//456
